<?xml version="1.0" encoding="UTF-8"?>
<svg version="1.1" xmlns="http://www.w3.org/2000/svg" width="512" height="512">
<path d="M0 0 C1.58648854 -0.00577918 3.17297036 -0.01373223 4.75943851 -0.02363622 C9.06660057 -0.04428659 13.37320053 -0.0342953 17.68036318 -0.01870513 C22.34577299 -0.00730499 27.01109192 -0.0248969 31.67648315 -0.03860474 C40.79529928 -0.06074996 49.91390875 -0.05607499 59.03273273 -0.04154153 C66.4487697 -0.03021482 73.86474908 -0.02873319 81.28079224 -0.03416061 C82.86858288 -0.03530986 82.86858288 -0.03530986 84.48845011 -0.03648233 C86.63933462 -0.03808108 88.79021911 -0.03970214 90.94110358 -0.04134528 C111.07425314 -0.05557726 131.20728857 -0.03925018 151.34041941 -0.01234345 C168.58727357 0.00999298 185.83395942 0.00611213 203.08081055 -0.01693726 C223.14562846 -0.04374042 243.21034654 -0.0542042 263.27517986 -0.03887594 C265.41781805 -0.03728332 267.56045626 -0.03571146 269.70309448 -0.03416061 C270.75710593 -0.03338924 271.81111737 -0.03261786 272.89706856 -0.03182311 C280.29770606 -0.02751965 287.69827984 -0.03476336 295.09890747 -0.04655838 C304.12713362 -0.0606322 313.15514261 -0.05668128 322.18334413 -0.03015466 C326.78304499 -0.01708189 331.38238479 -0.01175139 335.98208237 -0.02840042 C340.20397598 -0.04344998 344.42517856 -0.03486869 348.64701068 -0.00851266 C350.16293887 -0.00299051 351.67892714 -0.00562451 353.19481575 -0.0178916 C369.3555849 -0.13849671 382.97374986 3.77672309 396.49194336 12.63491821 C397.37624023 13.15312134 398.26053711 13.67132446 399.17163086 14.20523071 C402.08151856 15.99819182 404.13126649 18.16182816 406.49194336 20.63491821 C407.69760635 21.845916 408.90606885 23.05413141 410.11694336 24.25991821 C411.24194336 25.38491821 412.36694336 26.50991821 413.49194336 27.63491821 C413.99467773 28.09640259 414.49741211 28.55788696 415.01538086 29.03335571 C416.88281398 31.05887841 418.11754811 33.24910902 419.49194336 35.63491821 C420.03592773 36.47667603 420.57991211 37.31843384 421.14038086 38.18569946 C429.49082149 51.54262599 432.25138629 64.51794426 432.1335907 80.09864807 C432.14008637 81.69252404 432.14875082 83.28639236 432.159365 84.88024622 C432.18195962 89.21245923 432.17387547 93.5441285 432.16022575 97.87635839 C432.15090776 102.56701506 432.17050509 107.25756899 432.186203 111.94819641 C432.21219956 121.11861039 432.21122847 130.28882771 432.20016482 139.45926445 C432.19158293 146.91727955 432.19245564 154.37523804 432.19996071 161.83325386 C432.20154304 163.42957383 432.20154304 163.42957383 432.20315734 165.05814268 C432.20532842 167.22054272 432.20751519 169.38294274 432.20971749 171.54534275 C432.22911691 191.79103004 432.21717851 212.03660731 432.19493154 232.28228558 C432.17668344 249.62638925 432.18758651 266.97027998 432.21923828 284.31436157 C432.25605467 304.48941362 432.27300375 324.66433277 432.259826 344.83941847 C432.258485 346.99386789 432.25717602 349.14831734 432.25589943 351.3027668 C432.25495343 352.89251878 432.25495343 352.89251878 432.25398832 354.51438696 C432.25096946 361.95660709 432.26218415 369.39872638 432.27915001 376.84092522 C432.29953795 385.92043715 432.29850942 394.99964883 432.27051761 404.07914536 C432.25680592 408.70522742 432.25242809 413.3307864 432.27446747 417.95684814 C432.29442829 422.20293429 432.28602153 426.44804248 432.25627313 430.69406266 C432.25033229 432.21877076 432.25419779 433.74356066 432.26963636 435.26820218 C432.41640869 450.92052632 427.59949145 464.28130959 419.49194336 477.63491821 C418.9853418 478.50890259 418.47874023 479.38288696 417.95678711 480.28335571 C416.14171008 483.19715937 413.976074 485.2637026 411.49194336 487.63491821 C410.28094557 488.84058121 409.07273016 490.0490437 407.86694336 491.25991821 C406.74194336 492.38491821 405.61694336 493.50991821 404.49194336 494.63491821 C403.7997168 495.38901978 403.7997168 495.38901978 403.09350586 496.15835571 C401.06859069 498.02522872 398.87607013 499.25946046 396.49194336 500.63491821 C395.66178711 501.17890259 394.83163086 501.72288696 393.97631836 502.28335571 C380.5514155 510.76022294 366.70631773 513.39633892 350.99734497 513.27656555 C349.41228089 513.28306316 347.8272245 513.29172872 346.24218261 513.30233985 C341.93889185 513.32490898 337.63614924 513.3168599 333.33284163 513.3032006 C328.67147597 513.29387451 324.01021322 513.31348554 319.34887695 513.32917786 C310.23741874 513.35516284 301.12615852 513.3542066 292.01467742 513.34313967 C284.60342338 513.33455427 277.1922263 513.33543324 269.78097153 513.34293556 C268.72302187 513.34399045 267.66507222 513.34504534 266.57506349 513.34613219 C264.42531045 513.34830329 262.27555742 513.35049007 260.12580441 513.35269234 C240.00213646 513.37208807 219.87857922 513.3601572 199.75492035 513.3379064 C182.52118641 513.31966116 165.28766679 513.33055811 148.05395508 513.36221313 C128.00156471 513.39904388 107.94930809 513.41597336 87.89688385 513.40280086 C85.75477149 513.40145988 83.61265912 513.40015089 81.47054672 513.39887428 C79.88995169 513.39792828 79.88995169 513.39792828 78.27742545 513.39696318 C70.88372239 513.39394634 63.49012096 513.40515008 56.09643936 513.42212486 C47.07336884 513.44252994 38.05060045 513.44145856 29.02754535 513.41349246 C24.43158644 513.3997967 19.83615355 513.39536771 15.2402153 513.41744232 C-28.91406778 513.61340924 -28.91406778 513.61340924 -47.50805664 498.63491821 C-48.49805664 498.30491821 -49.48805664 497.97491821 -50.50805664 497.63491821 C-51.68445033 496.52574702 -52.85342135 495.40680554 -53.96899414 494.23648071 C-55.15815028 492.99903397 -56.37790017 491.79094363 -57.60961914 490.59585571 C-58.33922852 489.88687134 -59.06883789 489.17788696 -59.82055664 488.44741821 C-60.86663086 487.43614868 -60.86663086 487.43614868 -61.93383789 486.40444946 C-63.50805664 484.63491821 -63.50805664 484.63491821 -63.50805664 482.63491821 C-64.16805664 482.63491821 -64.82805664 482.63491821 -65.50805664 482.63491821 C-66.56441953 481.00339278 -67.55641223 479.32966028 -68.50805664 477.63491821 C-68.96825195 476.96073853 -69.42844727 476.28655884 -69.90258789 475.59194946 C-82.30062114 456.84120497 -81.38567452 436.72951145 -81.29240465 415.17600584 C-81.27871458 410.48876544 -81.29983954 405.80165473 -81.31628418 401.11444092 C-81.34284821 391.9546233 -81.33725321 382.79510205 -81.31980833 373.63527322 C-81.30621215 366.18541311 -81.30444007 358.73563558 -81.31095123 351.2857666 C-81.31233033 349.69028619 -81.31233033 349.69028619 -81.31373729 348.06257385 C-81.3156558 345.9012226 -81.31760108 343.73987138 -81.31957284 341.57852018 C-81.33664819 321.35089188 -81.31706351 301.1234272 -81.28477064 280.89582574 C-81.25796716 263.57081896 -81.26262426 246.24605346 -81.2902832 228.92105103 C-81.3224524 208.7617156 -81.33500055 188.60252329 -81.31660962 168.44316578 C-81.31469849 166.29013382 -81.31281227 164.13710183 -81.31095123 161.98406982 C-81.31002558 160.92496586 -81.30909993 159.86586189 -81.30814622 158.77466387 C-81.30298367 151.34091097 -81.31167101 143.90724948 -81.32582855 136.47351074 C-81.34272321 127.40394701 -81.33796365 118.3346945 -81.30614409 109.26516604 C-81.29046458 104.64502907 -81.28404601 100.02540943 -81.304039 95.40527725 C-81.39106949 73.47072696 -81.36078642 54.46398733 -68.50805664 35.63491821 C-67.99629883 34.72355103 -67.48454102 33.81218384 -66.95727539 32.87319946 C-66.4790332 32.13456665 -66.00079102 31.39593384 -65.50805664 30.63491821 C-64.84805664 30.63491821 -64.18805664 30.63491821 -63.50805664 30.63491821 C-63.25926758 30.05870728 -63.01047852 29.48249634 -62.75415039 28.88882446 C-61.33027517 26.31335109 -59.68377521 24.61480264 -57.57055664 22.57241821 C-56.8809082 21.90081665 -56.19125977 21.22921509 -55.48071289 20.53726196 C-54.82973633 19.90948853 -54.17875977 19.28171509 -53.50805664 18.63491821 C-53.03239258 18.12058228 -52.55672852 17.60624634 -52.06665039 17.07632446 C-50.06077262 15.22126457 -47.87285138 13.99922287 -45.50805664 12.63491821 C-44.67790039 12.09093384 -43.84774414 11.54694946 -42.99243164 10.98648071 C-29.5611804 2.50560493 -15.71623752 -0.12718122 0 0 Z " fill="#0088CC" transform="translate(80.508056640625,-0.634918212890625)"/>
<path d="M0 0 C2.95437857 2.21578393 3.762337 2.93999641 5 6.25 C6.24591977 17.41298955 4.09152019 28.89298502 2.54638672 39.92797852 C2.12450658 42.94102398 1.71537398 45.95558541 1.30859375 48.97070312 C1.04239973 50.92197515 0.77549688 52.87315062 0.5078125 54.82421875 C0.3868924 55.70784592 0.26597229 56.59147308 0.14138794 57.50187683 C-0.62552098 62.9667708 -1.54108647 68.38875346 -2.56401062 73.81164551 C-3.17333889 77.21943112 -3.55913023 80.62113682 -3.9375 84.0625 C-4.52701249 89.11614823 -5.31372612 94.03081236 -6.4375 99 C-7.63040693 104.29721542 -8.54485201 109.56729687 -9.3125 114.9375 C-11.24686526 128.42665409 -13.6403624 141.83996882 -15.96888733 155.26538086 C-16.67754514 159.35778302 -17.36834235 163.45264275 -18.04296875 167.55078125 C-19.03785889 173.52828112 -20.09612994 179.4885739 -21.25 185.4375 C-21.42917969 186.45263672 -21.60835937 187.46777344 -21.79296875 188.51367188 C-23.42811554 196.80162179 -26.78616242 202.37448998 -32.125 208.8125 C-37.50557564 211.50278782 -43.65932899 211.17100065 -49.39453125 209.58984375 C-58.73339769 205.7028561 -66.98728759 199.30483519 -75.13500977 193.4152832 C-80.2198669 189.76022748 -85.40603607 186.27265773 -90.625 182.8125 C-98.74865106 177.41791752 -106.86682933 172.01568932 -114.95257568 166.56442261 C-116.17682679 165.74037422 -117.40242124 164.91831752 -118.62945557 164.09841919 C-137.40861673 151.54555053 -137.40861673 151.54555053 -140 145.25 C-140.5145067 141.90570645 -140.69954976 139.44841435 -138.95068359 136.45239258 C-134.74218764 130.93729037 -130.06561643 126.04975941 -125.125 121.1875 C-124.36058594 120.42373047 -123.59617187 119.65996094 -122.80859375 118.87304688 C-118.66062789 114.75677175 -114.42178382 110.80923741 -109.99609375 106.99438477 C-106.38829711 103.84153411 -102.91978986 100.54005486 -99.4375 97.25 C-98.72142578 96.57710938 -98.00535156 95.90421875 -97.26757812 95.2109375 C-93.30031095 91.47109329 -89.39666816 87.68310004 -85.57641602 83.79296875 C-83.94485575 82.19602576 -82.2472345 80.7187268 -80.5 79.25 C-76.1813551 75.52879609 -72.15961175 71.52313892 -68.125 67.5 C-67.45791016 66.83742188 -66.79082031 66.17484375 -66.10351562 65.4921875 C-65.15895508 64.54472656 -65.15895508 64.54472656 -64.1953125 63.578125 C-63.62828613 63.0099707 -63.06125977 62.44181641 -62.47705078 61.85644531 C-60.25719517 59.44212301 -59.0297811 57.8902936 -58.875 54.5625 C-58.91625 53.799375 -58.9575 53.03625 -59 52.25 C-63.67097016 51.93815003 -66.08755389 52.4853845 -69.9375 55.125 C-70.89011719 55.76566406 -71.84273437 56.40632813 -72.82421875 57.06640625 C-73.87222656 57.78699219 -74.92023438 58.50757813 -76 59.25 C-77.17161494 60.03229257 -78.3448529 60.81215873 -79.51953125 61.58984375 C-81.89725235 63.16466177 -84.27156638 64.7442118 -86.640625 66.33203125 C-94.87723765 71.84959174 -103.13015167 77.34290049 -111.38580322 82.83192444 C-114.38275995 84.82461165 -117.37900458 86.81836782 -120.375 88.8125 C-121.32880554 89.44723236 -121.32880554 89.44723236 -122.30187988 90.0947876 C-129.27263638 94.73567864 -136.23207105 99.39161185 -143.1484375 104.11328125 C-143.99400711 104.69031548 -143.99400711 104.69031548 -144.85665894 105.27900696 C-147.49275675 107.07927064 -150.12587167 108.88371329 -152.75537109 110.69360352 C-158.7125757 114.77395743 -164.72914346 118.66749809 -171 122.25 C-171.69746338 122.65903564 -172.39492676 123.06807129 -173.11352539 123.48950195 C-177.86897528 126.1061315 -181.78162224 126.92239803 -187.1875 126.8125 C-188.32795776 126.80150269 -188.32795776 126.80150269 -189.49145508 126.7902832 C-200.26628194 126.43624228 -211.87557878 124.04823461 -221.7578125 119.6640625 C-224.77586595 118.34775485 -227.47528721 117.59607082 -230.6875 116.9375 C-237.93352152 115.21051631 -246.72559773 112.6616034 -251 106.25 C-251.5625 103.4375 -251.5625 103.4375 -251 100.25 C-245.35973258 93.6908126 -237.40060993 90.45219046 -229.5859375 87.265625 C-222.9953719 84.55513887 -216.49139621 81.68932932 -210 78.75 C-201.92920781 75.09766136 -193.83937479 71.52348841 -185.58203125 68.30859375 C-179.82885689 66.06551272 -174.24740146 63.52390632 -168.66650391 60.88720703 C-163.88497949 58.63757246 -159.0514385 56.56377834 -154.16015625 54.5625 C-150.41750627 53.0080743 -146.7088141 51.38313513 -143 49.75 C-138.24841852 47.65876535 -133.48708062 45.60459356 -128.6875 43.625 C-124.87894569 42.05313388 -121.11793294 40.40977264 -117.375 38.6875 C-113.20564174 36.77233116 -109.00033041 35.02437458 -104.73046875 33.34765625 C-100.3473309 31.58562229 -96.02085764 29.69301369 -91.6875 27.8125 C-87.15984781 25.87198733 -82.57762026 24.06858964 -78 22.25 C-76.39174893 21.60721638 -74.7836731 20.96399416 -73.17578125 20.3203125 C-70.6761194 19.32019373 -68.17624869 18.32061302 -65.67578125 17.32250977 C-61.80324032 15.77598492 -57.93224075 14.22697417 -54.07421875 12.64453125 C-44.61196563 8.78724118 -35.02698072 5.35113747 -25.35595703 2.05541992 C-23.7600942 1.50984982 -22.16736908 0.95502946 -20.57763672 0.3918457 C-13.60069076 -2.03802629 -6.8810048 -3.61181372 0 0 Z " fill="#FDFEFE" transform="translate(363,161.75)"/>
</svg>
